Coordinates
version=1
nRows=10
nColumns=22
inDegrees=yes

Units are S.I. units (second, meters, Newtons, ...)
If the header above contains a line with 'inDegrees', this indicates whether rotational values are in degrees (yes) or radians (no).

endheader
time	pelvis_tilt	pelvis_list	pelvis_rotation	pelvis_tx	pelvis_ty	pelvis_tz	hip_flexion_r	hip_adduction_r	hip_rotation_r	knee_angle_r	ankle_angle_r	subtalar_angle_r	hip_flexion_l	hip_adduction_l	hip_rotation_l	knee_angle_l	ankle_angle_l	subtalar_angle_l	lumbar_extension	lumbar_bending	lumbar_rotation
      3.92000000	      6.32784937	      3.99417831	     89.12827646	      0.87842587	      1.07398410	      0.11624368	      6.20971939	      6.76250603	     -3.42792577	    -13.84979325	      5.24373782	     -1.61953167	      6.71975651	     -6.85498390	     10.24290803	    -61.31933639	    -10.03349559	     10.39572340	     -4.29295992	      3.77879054	     -7.48946916
      3.93000000	      6.37839160	      4.08874897	     89.32145985	      0.88088589	      1.07464824	      0.11122030	      5.65016042	      6.97474047	     -3.55035878	    -13.53517257	      5.33141532	     -1.77824214	      7.59189389	     -7.07209196	      9.77643555	    -61.95490128	     -9.33356627	      8.93329559	     -4.42255874	      3.76333277	     -7.00833605
      3.94000000	      6.41207829	      4.18390912	     89.50699837	      0.88320768	      1.07527128	      0.10631561	      5.10614095	      7.16320998	     -3.66668476	    -13.23636713	      5.43028881	     -1.92104368	      8.41447565	     -7.24146235	      9.35497120	    -62.43465046	     -8.48908867	      7.51765154	     -4.55792768	      3.74054208	     -6.55424269
      3.95000000	      6.43134809	      4.27789982	     89.69168918	      0.88540071	      1.07584471	      0.10151691	      4.57896149	      7.33079074	     -3.78044995	    -12.95345816	      5.53878261	     -2.05013461	      9.19126329	     -7.37286665	      8.97103672	    -62.76479283	     -7.51839262	      6.23088492	     -4.69486523	      3.70955373	     -6.13533556
      3.96000000	      6.43460339	      4.37272580	     89.87574631	      0.88746418	      1.07635869	      0.09681859	      4.07277269	      7.47345334	     -3.90871629	    -12.69933749	      5.67043275	     -2.16914804	      9.92077174	     -7.46819297	      8.61669651	    -62.95336186	     -6.44229608	      5.11893823	     -4.83460071	      3.66933369	     -5.74821828
      3.97000000	      6.42793260	      4.46357216	     90.06245939	      0.88941750	      1.07680863	      0.09221212	      3.58693009	      7.60082293	     -4.03763146	    -12.46408017	      5.81296750	     -2.27602902	     10.60718660	     -7.53799597	      8.29243657	    -63.00432492	     -5.26086922	      4.24087381	     -4.97103887	      3.62173901	     -5.39369350
      3.98000000	      6.41768608	      4.55125348	     90.24794214	      0.89126984	      1.07719235	      0.08769309	      3.12150115	      7.71865787	     -4.17335382	    -12.24918536	      5.96846532	     -2.37595676	     11.25067175	     -7.59630410	      7.98265886	    -62.92456135	     -3.99304784	      3.56859362	     -5.10450988	      3.57480934	     -5.06250355
      3.99000000	      6.41762811	      4.63417683	     90.43060013	      0.89303751	      1.07749820	      0.08325515	      2.68350277	      7.84234817	     -4.32278896	    -12.06761837	      6.15208688	     -2.45574755	     11.85513173	     -7.66249067	      7.68306387	    -62.72482596	     -2.63826394	      3.12995792	     -5.23155248	      3.54137664	     -4.74058758
      4.00000000	      6.40565531	      4.71061465	     90.61465717	      0.89472823	      1.07776032	      0.07888140	      2.25210254	      7.95208007	     -4.44816656	    -11.87595046	      6.30708257	     -2.55577873	     12.41456313	     -7.71484487	      7.38298028	    -62.39403913	     -1.24503043	      2.71004800	     -5.34911543	      3.49289988	     -4.44950694
      4.01000000	      6.39826132	      4.77978088	     90.79254002	      0.89635301	      1.07796395	      0.07457763	      1.84250117	      8.06353439	     -4.57691298	    -11.70216849	      6.46966357	     -2.65515653	     12.93321201	     -7.77666224	      7.06961151	    -61.94748831	      0.18670358	      2.37637122	     -5.45706976	      3.44976384	     -4.18316593
